<?xml version="1.0" standalone="no"?>
<!DOCTYPE svg PUBLIC "-//W3C//DTD SVG 20010904//EN"
 "http://www.w3.org/TR/2001/REC-SVG-20010904/DTD/svg10.dtd">
<svg version="1.0" xmlns="http://www.w3.org/2000/svg"
 width="424.000000pt" height="424.000000pt" viewBox="0 0 424.000000 424.000000"
 preserveAspectRatio="xMidYMid meet">
<metadata>
Created by potrace 1.14, written by Peter Selinger 2001-2017
</metadata>
<g transform="translate(0.000000,424.000000) scale(0.100000,-0.100000)"
fill="#000000" stroke="none">
<path d="M10 3607 c0 -4 46 -88 102 -185 55 -97 106 -186 112 -197 12 -21 208
-363 240 -418 10 -18 131 -230 268 -472 138 -242 258 -451 267 -465 8 -14 23
-38 32 -55 9 -16 132 -232 274 -480 142 -247 268 -468 280 -490 81 -142 121
-208 127 -209 7 -1 183 305 961 1667 100 175 190 332 201 350 143 247 538 943
539 951 1 7 -519 10 -1700 11 -937 0 -1703 -3 -1703 -8z"/>
<path d="M3084 2577 c-6 -12 -118 -209 -249 -437 -131 -228 -249 -435 -263
-460 -46 -82 -293 -515 -302 -530 -13 -22 -114 -198 -140 -245 -12 -22 -48
-85 -80 -140 -31 -55 -62 -109 -68 -120 -10 -20 -9 -20 1123 -20 l1133 0 -23
40 c-59 102 -269 471 -286 503 -11 19 -66 114 -121 211 -56 97 -106 185 -113
196 -14 27 -137 241 -150 263 -6 9 -23 40 -38 67 -15 28 -32 57 -37 65 -8 12
-178 309 -252 440 -11 19 -34 60 -51 90 -18 30 -36 64 -42 74 -14 28 -28 29
-41 3z"/>
</g>
</svg>
